<svg height="480pt" viewBox="0 0 480 480.10822" width="480pt" xmlns="http://www.w3.org/2000/svg"><path d="m328.054688 128.109375c13.253906 0 24-10.746094 24-24v-48c0-13.257813-10.746094-24-24-24-13.253907 0-24 10.742187-24 24v24h-28.320313c17.292969-19.21875 16.257813-48.683594-2.339844-66.640625-18.601562-17.957031-48.082031-17.957031-66.679687 0-18.601563 17.957031-19.636719 47.421875-2.339844 66.640625h-28.320312v-24c0-13.257813-10.746094-24-24-24-13.253907 0-24 10.742187-24 24v48c0 13.253906 10.746093 24 24 24h21.121093l-36.753906 117.597656c-.765625 2.429688-.324219 5.082031 1.183594 7.132813 1.503906 2.054687 3.902343 3.269531 6.449219 3.269531h24c4.417968 0 8-3.582031 8-8s-3.582032-8-8-8h-13.121094l35-112h2.121094v144c0 13.253906 10.746093 24 24 24h8c5.921874-.023437 11.625-2.246094 16-6.242187 4.371093 3.996093 10.078124 6.21875 16 6.242187h8c13.253906 0 24-10.746094 24-24v-16h24c4.417968 0 8-3.582031 8-8s-3.582032-8-8-8h-24v-112h2.121093l14.246094 45.597656c1.046875 3.335938 4.136719 5.601563 7.632813 5.601563.8125.003906 1.625-.121094 2.398437-.367188 4.210937-1.320312 6.558594-5.796875 5.25-10.007812l-12.769531-40.824219zm-8-72c0-4.417969 3.582031-8 8-8 4.417968 0 8 3.582031 8 8v48c0 4.417969-3.582032 8-8 8h-8zm-112-8c0-17.675781 14.328124-32 32-32 17.671874 0 32 14.324219 32 32 0 17.671875-14.328126 32-32 32-17.671876 0-32-14.328125-32-32zm-64 56v-48c0-4.417969 3.582031-8 8-8 4.417968 0 8 3.582031 8 8v56h-8c-4.417969 0-8-3.582031-8-8zm128 144h-24v-48c0-4.417969-3.582032-8-8-8-4.417969 0-8 3.582031-8 8v48h-24v-80h64zm-48 32h-8c-4.417969 0-8-3.582031-8-8v-8h24v8c0 4.417969-3.582032 8-8 8zm48-8c0 4.417969-3.582032 8-8 8h-8c-4.417969 0-8-3.582031-8-8v-8h24zm8-160c-4.417969 0-8 3.582031-8 8v32h-64v-32c0-4.417969-3.582032-8-8-8h-24v-16h128v16zm0 0"/><path d="m448.054688 240.109375h24c4.417968 0 8-3.582031 8-8v-16c-.027344-13.246094-10.757813-23.976563-24-24-4.417969 0-8 3.582031-8 8s3.582031 8 8 8c4.417968 0 8 3.582031 8 8v8h-24c-4.417969 0-8 3.582031-8 8v32h-48v-32c0-4.417969-3.582032-8-8-8h-24v-8c0-4.417969 3.582031-8 8-8 4.417968 0 8-3.582031 8-8s-3.582032-8-8-8c-13.246094.023437-23.972657 10.753906-24 24v80c0 4.417969 3.582031 8 8 8 4.417968 0 8-3.582031 8-8v-56h16v144c-.042969 9.484375 5.527343 18.09375 14.199218 21.945313 8.667969 3.847656 18.792969 2.207031 25.800782-4.1875 7.007812 6.394531 17.132812 8.035156 25.800781 4.1875 8.667969-3.851563 14.242187-12.460938 14.199219-21.945313v-81.472656c2.5625.945312 5.269531 1.445312 8 1.472656 13.253906 0 24-10.746094 24-24v-16c0-4.417969-3.582032-8-8-8-4.417969 0-8 3.582031-8 8v16c0 4.417969-3.582032 8-8 8-4.417969 0-8-3.582031-8-8zm-16 40v80h-16v-48c0-4.417969-3.582032-8-8-8-4.417969 0-8 3.582031-8 8v48h-16v-80zm-40 112c-4.417969 0-8-3.582031-8-8v-8h16v8c0 4.417969-3.582032 8-8 8zm40-8c0 4.417969-3.582032 8-8 8-4.417969 0-8-3.582031-8-8v-8h16zm0 0"/><path d="m408.054688 208.109375c22.089843 0 40-17.910156 40-40 0-22.09375-17.910157-40-40-40-22.09375 0-40 17.90625-40 40 .027343 22.078125 17.917968 39.972656 40 40zm0-64c13.253906 0 24 10.742187 24 24 0 13.253906-10.746094 24-24 24-13.253907 0-24-10.746094-24-24 0-13.257813 10.746093-24 24-24zm0 0"/><path d="m120.054688 264.109375c-4.417969 0-8 3.582031-8 8s3.582031 8 8 8c4.417968 0 8 3.582031 8 8v8h-24c-4.417969 0-8 3.582031-8 8v32h-48v-32c0-4.417969-3.582032-8-8-8h-24v-8c0-4.417969 3.582031-8 8-8 4.417968 0 8-3.582031 8-8s-3.582032-8-8-8c-13.246094.023437-23.9726568 10.753906-24.0000005 24v64c0 13.253906 10.7460935 24 24.0000005 24 2.730468-.027344 5.4375-.527344 8-1.472656v97.472656c0 4.417969 3.582031 8 8 8 4.417968 0 8-3.582031 8-8v-24h16v24c0 4.417969 3.582031 8 8 8 4.417968 0 8-3.582031 8-8v-24h16v24c0 4.417969 3.582031 8 8 8 4.417968 0 8-3.582031 8-8v-97.472656c2.5625.945312 5.269531 1.445312 8 1.472656 13.253906 0 24-10.746094 24-24v-64c-.027344-13.246094-10.757813-23.976563-24-24zm-96 96c-4.417969 0-8-3.582031-8-8v-40h16v40c0 4.417969-3.582032 8-8 8zm56 72v-48c0-4.417969-3.582032-8-8-8-4.417969 0-8 3.582031-8 8v48h-16v-80h48v80zm48-80c0 4.417969-3.582032 8-8 8-4.417969 0-8-3.582031-8-8v-40h16zm0 0"/><path d="m72.054688 280.109375c22.089843 0 40-17.910156 40-40 0-22.09375-17.910157-40-40-40-22.09375 0-40 17.90625-40 40 .027343 22.078125 17.917968 39.972656 40 40zm0-64c13.253906 0 24 10.742187 24 24 0 13.253906-10.746094 24-24 24-13.253907 0-24-10.746094-24-24 0-13.257813 10.746093-24 24-24zm0 0"/><path d="m240.054688 352.109375c-4.417969 0-8 3.582031-8 8v104c0 4.417969 3.582031 8 8 8 4.417968 0 8-3.582031 8-8v-104c0-4.417969-3.582032-8-8-8zm0 0"/><path d="m296.054688 304.109375c-4.417969 0-8 3.582031-8 8v48c0 4.417969 3.582031 8 8 8 4.417968 0 8-3.582031 8-8v-48c0-4.417969-3.582032-8-8-8zm0 0"/><path d="m184.054688 312.109375c0-4.417969-3.582032-8-8-8-4.417969 0-8 3.582031-8 8v48c0 4.417969 3.582031 8 8 8 4.417968 0 8-3.582031 8-8zm0 0"/><path d="m344.054688 360.109375c-4.417969 0-8 3.582031-8 8v32c0 4.417969 3.582031 8 8 8 4.417968 0 8-3.582031 8-8v-32c0-4.417969-3.582032-8-8-8zm0 0"/><path d="m408.054688 416.109375c-4.417969 0-8 3.582031-8 8v48c0 4.417969 3.582031 8 8 8 4.417968 0 8-3.582031 8-8v-48c0-4.417969-3.582032-8-8-8zm0 0"/><path d="m472.054688 376.109375c-4.417969 0-8 3.582031-8 8v40c0 4.417969 3.582031 8 8 8 4.417968 0 8-3.582031 8-8v-40c0-4.417969-3.582032-8-8-8zm0 0"/><path d="m136.054688 392.109375c-4.417969 0-8 3.582031-8 8v40c0 4.417969 3.582031 8 8 8 4.417968 0 8-3.582031 8-8v-40c0-4.417969-3.582032-8-8-8zm0 0"/><path d="m296.054688 408.109375c-4.417969 0-8 3.582031-8 8v40c0 4.417969 3.582031 8 8 8 4.417968 0 8-3.582031 8-8v-40c0-4.417969-3.582032-8-8-8zm0 0"/><path d="m192.054688 408.109375c-4.417969 0-8 3.582031-8 8v32c0 4.417969 3.582031 8 8 8 4.417968 0 8-3.582031 8-8v-32c0-4.417969-3.582032-8-8-8zm0 0"/></svg>