<?xml version="1.0" encoding="iso-8859-1"?>
<!-- Generator: Adobe Illustrator 22.1.0, SVG Export Plug-In . SVG Version: 6.00 Build 0)  -->
<svg xmlns="http://www.w3.org/2000/svg" xmlns:xlink="http://www.w3.org/1999/xlink" version="1.1" id="Layer_1_1_" x="0px" y="0px" viewBox="0 0 64 64" style="enable-background:new 0 0 64 64;" xml:space="preserve" width="512" height="512">
<path d="M59.333,17c-1.148,0-2.245,0.549-2.933,1.467l-1.602,2.134C54.612,20.851,54.313,21,54,21h-8.172  c-0.263,0-0.521-0.107-0.707-0.293l-1-1c-0.336-0.336-0.716-0.622-1.121-0.865v-3.176C43,13.645,41.355,12,39.333,12  c-1.148,0-2.245,0.549-2.97,1.516c-1.211,1.614-2.658,3.012-4.287,4.192C31.524,17.262,30.834,17,30.121,17  c-1.683,0-3.051,1.342-3.11,3.011c-1.631,0.058-2.942,1.368-3,3c-1.631,0.058-2.942,1.368-3,3C19.342,26.07,18,27.438,18,29.121  c0,0.096,0.019,0.188,0.028,0.283l-6.383,3.647L5.02,34.376C2.69,34.842,1,36.904,1,39.279C1,46.293,6.706,52,13.721,52h24.043  c1.144,0,2.172-0.635,2.684-1.658l0.895-1.789C41.513,48.212,41.855,48,42.236,48h1.527c0.381,0,0.724,0.212,0.895,0.553  l0.895,1.789C46.064,51.365,47.093,52,48.236,52H58c2.757,0,5-2.243,5-5V20.667C63,18.645,61.355,17,59.333,17z M45.828,23H54  c0.94,0,1.837-0.449,2.399-1.2l1.602-2.134C58.313,19.249,58.811,19,59.333,19C60.252,19,61,19.748,61,20.667V26H48.396  c-0.394,0-0.777,0.076-1.143,0.226l-16.267,6.698C30.863,32.975,30.735,33,30.604,33h-5.19l11.879-11.879  C38.006,20.409,38.992,20,40,20s1.994,0.409,2.707,1.121l1,1C44.273,22.688,45.027,23,45.828,23z M38.001,14.666  C38.313,14.249,38.811,14,39.333,14C40.252,14,41,14.748,41,15.667v2.427C40.671,18.035,40.337,18,40,18  c-1.534,0-3.036,0.622-4.121,1.707L35,20.586l-1.468-1.468C35.209,17.863,36.708,16.389,38.001,14.666z M30.121,19  c0.295,0,0.584,0.12,0.793,0.328L33.586,22L32,23.586l-2.672-2.672C29.116,20.702,29,20.421,29,20.121  C29,19.503,29.503,19,30.121,19z M27.121,22c0.295,0,0.584,0.12,0.793,0.328L30.586,25L29,26.586l-2.672-2.672  C26.116,23.702,26,23.421,26,23.121C26,22.503,26.503,22,27.121,22z M24.121,25c0.295,0,0.584,0.12,0.793,0.328L27.586,28L26,29.586  l-2.672-2.672C23.116,26.702,23,26.421,23,26.121C23,25.503,23.503,25,24.121,25z M21.121,28c0.295,0,0.584,0.12,0.793,0.328  L24.586,31L23,32.586l-2.672-2.672C20.116,29.702,20,29.421,20,29.121C20,28.503,20.503,28,21.121,28z M18.914,31.328L20.586,33  h-4.82l3.077-1.758C18.869,31.269,18.887,31.301,18.914,31.328z M58,50h-9.764c-0.381,0-0.724-0.212-0.895-0.553l-0.895-1.789  C45.936,46.635,44.907,46,43.764,46h-1.527c-1.144,0-2.172,0.635-2.684,1.658l-0.895,1.789C38.487,49.788,38.145,50,37.764,50  H13.721C7.81,50,3,45.191,3,39.279c0-1.323,0.88-2.474,2.124-2.857C5.809,40.71,9.522,44,14,44h3v-2h-3  c-3.518,0-6.43-2.612-6.92-5.996l1.981-0.396C9.365,38.076,11.451,40,14,40h17.25c0.622,0,1.231-0.114,1.812-0.34l9.301-3.617  l-0.725-1.864l-9.301,3.617C31.989,37.931,31.623,38,31.25,38H14c-1.581,0-2.866-1.232-2.978-2.785L12.099,35h18.505  c0.394,0,0.777-0.076,1.143-0.226l16.267-6.698C48.137,28.025,48.265,28,48.396,28H61v3h-9.499c-1.12,0-2.218,0.206-3.262,0.612  l-4.602,1.79l0.725,1.864l4.602-1.79C49.776,33.16,50.63,33,51.501,33H61v9H51c-1.075,0-2.141-0.355-3-1L47.2,40.4  c-2.406-1.806-5.995-1.805-8.399,0L37.999,41c-0.858,0.645-1.924,1-2.999,1H19v2h16c1.506,0,2.997-0.498,4.199-1.4l0.802-0.6  c1.717-1.29,4.28-1.291,5.999,0l0.8,0.599c1.203,0.903,2.694,1.4,4.2,1.4h10v3C61,48.654,59.654,50,58,50z"/>
</svg>
