<svg height="512pt" viewBox="0 -105 512.002 512" width="512pt" xmlns="http://www.w3.org/2000/svg"><path d="m504.425781 114.113281c4.183594 0 7.574219-3.390625 7.574219-7.574219v-44.433593c0-4.179688-3.390625-7.574219-7.574219-7.574219h-38.878906v-26.757812c0-4.183594-3.390625-7.574219-7.574219-7.574219h-38.878906v-12.625c0-4.183594-3.390625-7.574219-7.574219-7.574219h-46.453125c-4.183594 0-7.574218 3.390625-7.574218 7.574219v103.511719h-63.117188c-4.183594 0-7.574219 3.390624-7.574219 7.574218s3.390625 7.574219 7.574219 7.574219h63.117188v49.484375h-202.984376v-49.484375h104.523438c4.183594 0 7.574219-3.390625 7.574219-7.574219s-3.390625-7.574218-7.574219-7.574218h-104.523438v-103.511719c0-4.183594-3.390624-7.574219-7.574218-7.574219h-46.453125c-4.183594 0-7.574219 3.390625-7.574219 7.574219v12.625h-38.878906c-4.183594 0-7.574219 3.390625-7.574219 7.574219v26.757812h-38.878906c-4.183594 0-7.574219 3.394531-7.574219 7.574219v177.738281c0 4.183594 3.390625 7.574219 7.574219 7.574219h38.878906v26.761719c0 4.179687 3.390625 7.574218 7.574219 7.574218h38.878906v12.621094c0 4.183594 3.394531 7.574219 7.574219 7.574219h46.457031c4.179688 0 7.574219-3.390625 7.574219-7.574219v-41.402344c0-4.183594-3.394531-7.574218-7.574219-7.574218-4.183594 0-7.574219 3.390624-7.574219 7.574218v33.828125h-31.308593v-271.652343h31.308593v203.488281c0 4.183593 3.390625 7.574219 7.574219 7.574219 4.179688 0 7.574219-3.390626 7.574219-7.574219v-27.773438h202.980469v103.511719c0 4.183594 3.390624 7.574219 7.574218 7.574219h46.453125c4.183594 0 7.574219-3.390625 7.574219-7.574219v-12.621094h38.878906c4.183594 0 7.574219-3.390625 7.574219-7.574218v-26.761719h38.882813c4.179687 0 7.574218-3.390625 7.574218-7.574219v-97.957031c0-4.183594-3.394531-7.574219-7.574218-7.574219-4.183594 0-7.574219 3.390625-7.574219 7.574219v90.382812h-31.308594v-162.589843h31.308594v36.859374c-.003907 4.1875 3.386719 7.574219 7.570312 7.574219zm-489.277343 118.15625v-162.589843h31.304687v162.589843zm46.453124 34.335938v-231.257813h31.304688v231.257813zm342.34375 20.195312h-31.304687v-271.652343h31.304687zm46.453126-20.195312h-31.304688v-231.257813h31.304688zm0 0"/></svg>